<svg xmlns="http://www.w3.org/2000/svg" width="1200" height="796" viewBox="0 0 1200 796" version="1.1">
	<path d="M 570 56.641 C 555.670 57.570, 536.483 61.731, 528.668 65.605 C 526.010 66.922, 523.490 68, 523.068 68 C 522.645 68, 519.475 69.677, 516.022 71.726 C 508.235 76.348, 489 94.962, 489 97.877 C 489 98.346, 488.100 99.874, 487 101.272 C 485.901 102.670, 483.363 106.894, 481.360 110.657 C 479.357 114.421, 476.980 118.400, 476.076 119.500 C 475.172 120.600, 472.657 124.158, 470.487 127.406 C 468.317 130.654, 463.899 136.054, 460.668 139.406 C 450.030 150.443, 450.068 150.379, 450.428 156.625 C 450.719 161.658, 451.168 162.639, 454.886 166.361 C 457.159 168.637, 462.053 172.082, 465.760 174.016 L 472.500 177.533 472.208 182.516 C 471.807 189.347, 470.313 193.565, 467.685 195.287 C 463.313 198.151, 454.631 206.014, 452.840 208.730 C 451.505 210.754, 451.011 213.411, 451.007 218.593 C 451 225.433, 451.171 225.933, 455.772 232.593 C 462.264 241.989, 464.385 248.364, 463.658 256.288 C 462.155 272.662, 460.385 277.589, 454.792 280.963 C 453.391 281.808, 449.678 284.300, 446.541 286.500 C 443.403 288.700, 440.093 290.950, 439.185 291.500 C 438.276 292.050, 435.726 293.671, 433.516 295.102 C 431.307 296.533, 429.050 297.883, 428.500 298.102 C 426.635 298.844, 400.524 316.344, 396.500 319.548 C 394.300 321.299, 392.050 322.905, 391.500 323.116 C 389.529 323.873, 370.406 335.442, 365.760 338.688 C 363.153 340.510, 360.827 342, 360.589 342 C 360.212 342, 343.015 351.564, 339 354.007 C 333.850 357.140, 328.411 359.978, 320.973 363.413 C 304.889 370.840, 289.487 378.150, 285.500 380.248 C 283.300 381.406, 280.825 382.697, 280 383.117 C 278.541 383.860, 264.040 390.566, 257 393.755 C 255.075 394.627, 251.475 396.354, 249 397.594 C 246.525 398.834, 240.675 401.420, 236 403.341 C 231.325 405.263, 223.900 408.384, 219.500 410.277 C 211.257 413.824, 208.370 414.867, 179.511 424.712 C 164.772 429.741, 162.352 430.865, 161.230 433.206 C 160.519 434.689, 160.212 436.997, 160.548 438.334 C 161.266 441.196, 168.404 446.076, 175.229 448.371 C 183.696 451.219, 202.325 455.825, 210 456.968 C 214.125 457.582, 219.525 458.498, 222 459.004 C 225.872 459.794, 229.320 460.263, 240.500 461.520 C 241.600 461.644, 244.525 461.809, 247 461.888 C 249.475 461.966, 252.154 462.444, 252.954 462.950 C 255.119 464.320, 252.663 468.314, 248.406 470.343 C 246.378 471.311, 245 472.702, 245 473.784 C 245 474.783, 244.601 476.027, 244.113 476.550 C 241.222 479.646, 238.329 500.251, 237.521 523.500 C 236.775 544.980, 235.969 560.958, 235.478 564 C 234.284 571.393, 232.951 590.789, 231.998 614.645 C 231.407 629.415, 230.492 643.945, 229.962 646.934 C 229.433 649.922, 229 653.995, 229 655.984 C 229 661.028, 226.981 664.847, 224 665.440 C 222.625 665.714, 216.325 665.915, 210 665.887 C 201.447 665.848, 197.475 666.262, 194.500 667.500 C 186.679 670.755, 180.107 674.017, 179.549 674.921 C 179.237 675.425, 176.138 677.428, 172.662 679.372 C 166.871 682.611, 163.174 685.883, 155.327 694.715 C 149.657 701.098, 143 722.157, 143 733.713 C 143 741.730, 140.910 749.714, 138.073 752.534 C 132.407 758.168, 124.529 763.472, 113.619 769 C 99.973 775.914, 96.344 780.168, 92.502 793.750 L 91.865 796 136.901 796 C 187.114 796, 182.652 796.711, 179.341 789.239 C 177.855 785.886, 178.215 783.960, 180.309 784.052 C 180.964 784.081, 183.705 786.781, 186.399 790.052 L 191.299 796 695.649 796 L 1200 796 1200 720.389 L 1200 644.778 1196 640 C 1193.800 637.372, 1192 634.774, 1192 634.226 C 1192 633.678, 1190.987 632.540, 1189.750 631.697 C 1185.032 628.483, 1179 621.921, 1179 620.002 C 1179 618.901, 1179.373 618, 1179.829 618 C 1181.420 618, 1184.931 608.444, 1185.962 601.308 C 1188.030 586.985, 1186.903 576.420, 1182.843 572.062 C 1179.633 568.617, 1178 570.448, 1178 577.492 C 1178 585.293, 1175.566 593.083, 1172.088 596.416 C 1170.632 597.811, 1165.676 600.312, 1161.074 601.973 L 1152.708 604.994 1148.128 602.747 C 1142.326 599.900, 1135.360 592.819, 1132.636 587 C 1130.785 583.046, 1130.583 581.166, 1130.973 571.500 C 1131.508 558.237, 1131.552 536.203, 1131.056 530 C 1130.724 525.846, 1129.227 521.983, 1124.502 513.086 C 1123.505 511.208, 1120.622 507.548, 1118.095 504.954 C 1113.234 499.962, 1106.002 497, 1098.678 497 C 1096.745 497, 1094.452 496.727, 1093.583 496.393 C 1089.402 494.789, 1103.859 489.020, 1112.144 488.986 C 1120.364 488.953, 1122.326 486.032, 1117.250 481.388 C 1109.571 474.364, 1098.119 472.621, 1085.324 476.530 C 1083.171 477.188, 1083.154 477.098, 1083.711 467.767 C 1084.147 460.458, 1083.898 457.208, 1082.600 453.301 C 1080.190 446.044, 1071.065 433.859, 1065.877 430.970 C 1064.422 430.159, 1064.267 431.177, 1064.377 440.855 C 1064.491 450.827, 1064.311 451.923, 1062 455.307 C 1059.561 458.879, 1055.728 461, 1051.710 461 C 1048.246 461, 1040.879 456.667, 1039.365 453.739 C 1038.528 452.120, 1037.559 445.936, 1037.090 439.210 C 1035.926 422.553, 1030.230 406.038, 1023.685 400.348 C 1022.341 399.179, 1021.074 397.835, 1020.870 397.361 C 1020.382 396.225, 1009.375 387, 1008.508 387 C 1008.138 387, 1004.835 385.687, 1001.168 384.083 C 990.681 379.495, 966.170 378.276, 950.312 381.555 C 948.189 381.994, 948.113 381.692, 947.717 371.253 C 947.145 356.179, 944.702 348.134, 938.334 340.363 C 936.378 337.976, 934.996 335.453, 935.263 334.757 C 935.530 334.062, 939.742 331.536, 944.624 329.145 C 962.513 320.383, 971.893 315.329, 982 309.004 C 982.825 308.488, 985.975 306.605, 989 304.819 C 999.748 298.473, 1013.626 288.647, 1022.460 281.127 C 1041.972 264.517, 1063.022 243.517, 1069.225 234.473 C 1070.724 232.288, 1073.044 229.328, 1074.380 227.896 C 1075.717 226.463, 1077.768 223.538, 1078.939 221.396 C 1080.110 219.253, 1082.456 215.079, 1084.153 212.120 C 1086.951 207.240, 1087.136 206.398, 1086.138 203.065 C 1085.208 199.964, 1084.216 199.032, 1079.771 197.092 C 1074.718 194.885, 1073.817 194.819, 1057.502 195.462 C 1048.151 195.831, 1033.975 196.794, 1026 197.602 C 997.080 200.532, 970.904 202.214, 941.500 203.032 C 925 203.491, 908.575 204.337, 905 204.913 C 901.425 205.489, 895.125 205.971, 891 205.984 C 886.875 205.997, 876.300 206.734, 867.500 207.620 C 849.214 209.462, 832.984 210.412, 794 211.922 C 778.875 212.508, 763.350 213.157, 759.500 213.365 C 755.650 213.572, 751.549 213.384, 750.386 212.948 C 747.142 211.728, 746.621 209.033, 749.115 206.377 C 750.516 204.886, 751.454 202.330, 751.757 199.178 C 752.208 194.486, 752.058 194.134, 748.033 190.395 C 744.228 186.861, 737.126 181.608, 735.080 180.816 C 734.631 180.642, 733.959 179.519, 733.587 178.319 C 733.031 176.530, 734.135 174.967, 739.735 169.613 C 745.092 164.493, 746.825 162.102, 747.787 158.506 C 748.806 154.697, 748.766 153.449, 747.553 151.103 C 746.258 148.599, 730.532 133.322, 722.500 126.766 C 719.184 124.059, 709.006 118.750, 699 114.508 C 695.425 112.992, 692.072 111.358, 691.550 110.876 C 691.027 110.394, 689.813 110, 688.850 110 C 686.811 110, 678.684 104.826, 674.848 101.086 C 671.026 97.358, 669.220 96, 668.088 96 C 667.539 96, 666.021 94.987, 664.714 93.750 C 663.406 92.513, 660.200 89.925, 657.589 88 C 654.978 86.075, 652.102 83.713, 651.199 82.750 C 650.295 81.787, 648.981 81, 648.278 81 C 647.575 81, 647 80.594, 647 80.099 C 647 79.603, 645.538 78.280, 643.750 77.159 C 641.962 76.037, 637.800 73.280, 634.500 71.032 C 631.200 68.783, 624.370 64.875, 619.323 62.346 C 611.910 58.632, 608.642 57.591, 602.323 56.928 C 594.874 56.147, 579.703 56.012, 570 56.641 M 558.519 152.685 C 555.230 153.467, 551.819 154.758, 550.941 155.554 C 550.062 156.349, 549.076 157, 548.750 157 C 547.466 157, 524.136 168.620, 518.232 172.199 C 514.785 174.290, 511.475 176, 510.876 176 C 510.278 176, 508.148 177.288, 506.144 178.862 C 504.140 180.436, 498.900 183.655, 494.500 186.014 C 490.100 188.373, 483.973 191.923, 480.884 193.902 C 477.795 195.881, 473.103 198.850, 470.458 200.500 C 467.812 202.150, 463.252 205.893, 460.324 208.817 C 455.478 213.657, 455 214.536, 455 218.608 C 455 221.308, 455.731 224.155, 456.844 225.790 C 462.734 234.448, 464.181 237.086, 463.710 238.314 C 463.421 239.066, 463.636 240.316, 464.187 241.091 C 464.980 242.207, 465.071 242.136, 464.626 240.750 C 464.196 239.415, 464.629 239, 466.450 239 C 467.762 239, 469.544 238.728, 470.410 238.396 C 471.370 238.028, 472.236 238.451, 472.631 239.481 C 473.331 241.304, 471.214 251.893, 469.839 253.450 C 469.378 253.972, 469 255.795, 469 257.500 C 469 259.205, 468.610 261.027, 468.132 261.550 C 467.012 262.776, 465.923 268.589, 466.672 269.339 C 467.391 270.058, 474.447 266.561, 478.683 263.386 C 480.434 262.074, 482.131 261, 482.453 261 C 482.776 261, 484.718 259.947, 486.770 258.659 C 491.684 255.575, 499.753 251.034, 503.500 249.244 C 505.150 248.455, 510.550 245.854, 515.500 243.464 C 524.562 239.087, 534.004 235.960, 546 233.361 C 549.575 232.586, 554.525 231.512, 557 230.974 C 559.475 230.435, 563.975 229.282, 567 228.410 C 577.060 225.512, 585.329 224.229, 604.500 222.591 C 614.950 221.698, 625.300 220.733, 627.500 220.446 C 633.019 219.726, 639.022 219.201, 649 218.568 C 680.298 216.583, 687.975 215.803, 693.502 214.044 C 696.804 212.993, 701.529 212.109, 704.002 212.080 C 706.476 212.050, 709.625 211.988, 711 211.941 C 712.375 211.895, 717.775 211.847, 723 211.836 C 731.347 211.818, 737.826 211.528, 738.821 211.129 C 738.998 211.058, 738.436 210.293, 737.571 209.429 C 736.707 208.564, 736 206.764, 736 205.429 C 736 203.271, 735.564 203, 732.083 203 C 729.850 203, 727.979 203.537, 727.729 204.250 C 727.114 206.008, 723 202.239, 723 199.918 C 723 198.943, 724.125 197.260, 725.500 196.179 C 728.249 194.017, 728.669 192.474, 726.750 191.593 C 726.063 191.277, 726.625 191.304, 728 191.654 C 729.375 192.003, 731.463 193.012, 732.640 193.895 C 734.762 195.487, 734.749 195.510, 731.140 196.645 L 727.500 197.790 732.115 197.895 C 735.163 197.964, 737.635 198.712, 739.395 200.096 C 742.577 202.599, 745 201.976, 745 198.654 C 745 194.356, 738.956 191.933, 736.765 195.353 C 736.332 196.029, 736.024 195.552, 736.015 194.191 C 736.007 192.903, 736.442 192.155, 737 192.500 C 737.550 192.840, 738 192.393, 738 191.507 C 738 190.616, 736.659 189.429, 735 188.850 C 733.350 188.275, 732 187.398, 732 186.902 C 732 186.406, 731.123 186, 730.052 186 C 728.980 186, 726.871 184.858, 725.364 183.462 C 723.260 181.511, 721.975 181.066, 719.819 181.540 C 717.925 181.956, 716.497 181.640, 715.426 180.569 C 714.553 179.696, 713.425 179.237, 712.919 179.550 C 712.414 179.862, 712 179.698, 712 179.184 C 712 178.670, 710.875 178.184, 709.500 178.104 C 704.641 177.821, 704.081 177.653, 703.574 176.333 C 703.293 175.600, 701.728 175, 700.096 175 C 698.465 175, 695.863 174.488, 694.315 173.863 C 691.346 172.664, 685.162 171.308, 678.513 170.398 C 676.321 170.098, 674.210 169.340, 673.823 168.714 C 673.436 168.088, 671.204 167.447, 668.863 167.291 C 666.478 167.131, 663.039 165.968, 661.041 164.646 C 657.125 162.054, 649.757 160.063, 634.500 157.473 C 629 156.540, 623.600 155.402, 622.500 154.944 C 615.588 152.070, 568.147 150.395, 558.519 152.685 M 668 325.484 C 666.625 326.284, 664.185 327.473, 662.579 328.127 L 659.657 329.315 662.417 331.515 C 665.818 334.228, 665.725 338.326, 662.250 338.820 C 659.738 339.176, 659.667 339.417, 659.960 346.617 C 660.155 351.433, 659.972 351.853, 656.834 353.769 C 653.525 355.789, 646.718 357.266, 640 357.420 L 636.500 357.500 636.854 352.534 C 637.066 349.555, 637.825 347.117, 638.751 346.440 C 639.821 345.658, 640.090 344.495, 639.628 342.656 C 639.092 340.520, 638.375 340, 635.963 340 C 633.063 340, 622.845 344.599, 622.167 346.209 C 621.983 346.644, 620.971 347, 619.917 347 C 618.862 347, 618 347.347, 618 347.771 C 618 348.195, 615.862 349.657, 613.250 351.021 C 610.638 352.384, 608.350 353.837, 608.167 354.250 C 607.983 354.663, 607.251 355, 606.539 355 C 604.289 355, 602.491 357.970, 603.639 359.790 C 605.139 362.168, 600.264 366, 595.741 366 C 593.832 366, 591.197 366.838, 589.885 367.863 C 588.573 368.887, 585.648 370.665, 583.384 371.815 C 581.119 372.964, 577.969 374.975, 576.384 376.285 C 574.798 377.594, 571.938 379.528, 570.030 380.582 C 568.121 381.637, 566.096 382.847, 565.530 383.270 C 563.499 384.790, 551.924 392, 551.516 392 C 551.288 392, 549.165 393.309, 546.800 394.909 C 539.139 400.092, 538.095 401.797, 536.940 411.003 C 536.364 415.603, 535.587 419.846, 535.214 420.433 C 534.841 421.020, 534.481 423.975, 534.415 427 C 534.349 430.025, 533.891 434.300, 533.398 436.500 C 532.322 441.293, 532.745 448.276, 534.062 447.462 C 534.578 447.143, 535 447.359, 535 447.941 C 535 449.492, 532.438 449.233, 531.032 447.539 C 529.783 446.034, 528.785 428.913, 529.893 428 C 532.863 425.553, 534.858 405.119, 532.214 404.238 C 531.325 403.942, 515.571 411.283, 509 415.056 C 505.282 417.190, 497.029 421, 496.123 421 C 495.572 421, 492.057 422.573, 488.311 424.495 C 484.565 426.417, 480.972 427.992, 480.327 427.995 C 478.678 428.002, 479.822 442.994, 481.630 445.079 C 482.384 445.947, 483 448.347, 483 450.411 C 483 454.776, 489.903 471.806, 497.202 485.450 C 498.688 488.227, 501.290 493.295, 502.984 496.711 C 504.679 500.127, 506.451 503.160, 506.922 503.452 C 507.393 503.743, 508.072 505.149, 508.430 506.576 C 508.788 508.003, 509.526 509.695, 510.069 510.336 C 511.366 511.865, 525 534.919, 525 535.583 C 525 535.865, 526.494 538.437, 528.321 541.298 C 530.148 544.159, 535.544 554.375, 540.312 564 C 545.081 573.625, 550.674 583.424, 552.741 585.776 C 557.140 590.779, 557.721 590.893, 580 591.120 C 590.884 591.231, 593.853 591.518, 591.907 592.271 C 589.646 593.147, 589.341 593.800, 589.515 597.388 C 589.625 599.649, 590.251 603.525, 590.907 606 C 591.562 608.475, 591.963 614.550, 591.799 619.500 L 591.500 628.500 586.934 628.276 C 580.939 627.982, 576.296 625.959, 571.726 621.648 C 568.998 619.076, 568 617.312, 568 615.067 C 568 611.484, 569.827 611.046, 572.492 613.991 C 574.193 615.870, 574.369 615.884, 575.660 614.241 C 576.892 612.672, 577.002 612.797, 576.764 615.500 C 576.525 618.218, 576.805 618.529, 579.749 618.813 C 581.708 619.002, 583.409 619.895, 584.034 621.063 C 584.604 622.128, 585.505 623, 586.035 623 C 588.677 623, 585.781 609.613, 581.073 600.067 C 579.779 597.442, 577.050 596.333, 575.987 598 C 575.461 598.825, 575.024 599.223, 575.015 598.884 C 575.007 598.546, 573.194 598.599, 570.987 599.002 C 567.916 599.564, 566.038 599.273, 562.987 597.764 C 560.794 596.679, 559 595.388, 559 594.895 C 559 594.403, 558.363 594, 557.584 594 C 553.521 594, 539.002 619.076, 539.001 626.097 C 539 628.260, 539.798 630.614, 541 632 C 542.100 633.268, 543 634.812, 543 635.430 C 543 636.048, 545.598 639.017, 548.773 642.027 C 554.835 647.775, 556.572 648.554, 574.500 653.564 C 579.450 654.947, 585.075 656.889, 587 657.879 C 588.925 658.870, 591.850 660.012, 593.500 660.418 C 595.150 660.824, 597.175 661.735, 598 662.444 C 598.825 663.152, 600.769 664.033, 602.319 664.402 C 604.729 664.975, 611 670.128, 611 671.534 C 611 672.860, 606.880 671.698, 603.898 669.531 C 597.334 664.762, 587.696 660.601, 583.852 660.877 C 581.845 661.020, 579.902 660.651, 579.534 660.055 C 578.458 658.313, 571.299 655, 568.613 655 C 566.143 655, 560 661.138, 560 663.605 C 560 664.238, 559.320 665.319, 558.490 666.008 C 557.659 666.698, 556.262 669.730, 555.385 672.746 C 553.839 678.065, 553.862 678.410, 556.128 684.116 C 557.414 687.352, 558.811 690, 559.233 690 C 559.655 690, 560 690.900, 560 692 C 560 693.100, 560.644 694, 561.432 694 C 562.219 694, 563.825 695.350, 565 697 C 566.967 699.762, 567.612 700, 573.131 700 C 581.706 700, 606.436 698.155, 620.663 696.454 C 627.353 695.654, 636.444 695, 640.866 695 C 645.288 695, 649.940 694.601, 651.203 694.113 C 652.466 693.625, 655.975 692.667, 659 691.984 C 662.025 691.301, 664.950 690.407, 665.500 689.997 C 666.665 689.130, 674.735 687.735, 680.500 687.406 C 686.177 687.082, 688.334 686.497, 688.779 685.162 C 689.006 684.482, 688.551 684.235, 687.685 684.567 C 686.869 684.880, 685.905 684.656, 685.542 684.068 C 685.179 683.481, 685.584 683, 686.441 683 C 687.298 683, 688.021 682.438, 688.046 681.750 C 688.376 672.768, 687.881 653.625, 687.295 652.703 C 686.875 652.041, 686.467 651.163, 686.390 650.750 C 686.313 650.337, 686.167 649.888, 686.065 649.750 C 685.963 649.612, 685.726 647.250, 685.538 644.500 C 685.112 638.259, 683.260 621.460, 682.121 613.500 L 681.262 607.500 681.016 612 L 680.770 616.500 679.996 612.500 C 679.571 610.300, 679.285 606.587, 679.361 604.249 C 679.438 601.911, 679.111 599.999, 678.636 599.999 C 678.161 600, 676.116 601.866, 674.093 604.146 C 670.796 607.861, 670.184 608.169, 668.207 607.111 C 665.288 605.549, 665.418 603.612, 668.578 601.541 C 670.265 600.436, 670.945 599.298, 670.544 598.254 C 670.161 597.256, 670.977 595.616, 672.715 593.888 C 679.930 586.717, 679.522 587.885, 679.256 575.173 C 679.122 568.753, 678.305 559.291, 677.442 554.147 C 676.579 549.003, 676.110 544.557, 676.401 544.266 C 676.692 543.975, 676.480 542.896, 675.930 541.869 C 674.668 539.511, 671.317 539.437, 670.569 541.750 C 669.882 543.874, 665.255 546.221, 664.419 544.869 C 664.099 544.351, 665.674 542.091, 667.919 539.846 C 670.163 537.601, 672 535.143, 672 534.382 C 672 533.622, 672.450 533, 673 533 C 674.275 533, 674.340 514.024, 673.076 510.701 C 672.568 509.364, 672.037 505.443, 671.896 501.987 C 671.755 498.532, 671.082 492.958, 670.400 489.602 C 669.232 483.855, 668.146 477.216, 665.885 462 C 665.353 458.425, 663.934 451.228, 662.732 446.008 C 659.961 433.977, 659.968 430.257, 662.773 426.319 C 665.480 422.517, 665.637 417.561, 663.262 410.874 C 661.240 405.182, 662.023 403.014, 666.604 401.616 C 670.606 400.395, 673.997 399.065, 677.331 397.407 C 678.888 396.633, 680.684 396, 681.322 396 C 681.961 396, 684.788 394.413, 687.605 392.472 C 690.422 390.532, 695.376 388.015, 698.613 386.878 C 701.851 385.742, 705.737 384.082, 707.250 383.190 C 709.982 381.579, 710.858 379.471, 709.061 378.833 C 707.560 378.301, 696.205 368.914, 691.117 364 C 686.610 359.646, 681 351.971, 681 350.156 C 681 349.669, 680.085 348.107, 678.968 346.686 C 676.182 343.144, 674.024 335.554, 674.011 329.250 C 673.999 323.436, 672.805 322.689, 668 325.484 M 573 425.521 C 573 426.358, 574.068 427.530, 575.374 428.125 C 577.842 429.249, 580.771 435.943, 579.614 437.816 C 579.264 438.381, 576.015 439.830, 572.393 441.036 C 567.057 442.811, 565.576 443.778, 564.587 446.130 C 563.916 447.727, 563.059 448.726, 562.683 448.350 C 562.307 447.974, 562 448.594, 562 449.726 C 562 450.859, 562.675 452.045, 563.500 452.362 C 564.325 452.678, 565 453.626, 565 454.469 C 565 458.051, 569.380 454.359, 570.512 449.823 C 571.055 447.646, 571.932 447.018, 575.196 446.467 C 581.585 445.388, 583.309 442.945, 582.786 435.715 C 582.394 430.297, 581.988 429.353, 578.961 426.827 C 575.207 423.692, 573 423.209, 573 425.521 M 575 474.184 C 573.075 475.416, 571.275 476.707, 571 477.053 C 569.784 478.586, 560.873 480.928, 554 481.522 C 545.457 482.260, 544 483.078, 544 487.136 C 544 490.792, 545.491 493.312, 550.426 497.994 C 554.063 501.444, 554.381 502.189, 554.742 508.109 C 555.151 514.800, 556.628 520, 558.121 520 C 558.605 520, 559.017 520.563, 559.039 521.250 C 559.060 521.938, 561.198 523.522, 563.789 524.771 C 573.194 529.304, 589.104 527.491, 599.344 520.719 C 603.344 518.074, 608 513.277, 608 511.801 C 608 510.945, 608.675 509.685, 609.500 509 C 610.325 508.315, 611 506.937, 611 505.937 C 611 504.936, 611.415 503.861, 611.923 503.548 C 612.431 503.234, 613.153 501.520, 613.529 499.739 C 614.647 494.439, 621.008 481.668, 623.719 479.281 C 628.108 475.416, 624.261 472.184, 618.769 475.124 C 616.216 476.490, 609.363 476.444, 604.094 475.025 C 600.302 474.004, 595.207 473.340, 584 472.404 C 579.506 472.029, 577.860 472.354, 575 474.184 M 585.500 482.658 C 582.176 483.383, 575.813 486.303, 570.059 489.745 C 567.066 491.535, 563.669 493, 562.509 493 C 559.972 493, 558 494.783, 558 497.078 C 558 500.434, 560.121 500.870, 569.500 499.442 C 574.450 498.688, 578.612 498.055, 578.750 498.035 C 579.929 497.868, 578.470 500.970, 576.483 502.855 C 571.772 507.323, 574.084 510.651, 580.500 508.639 C 587.318 506.500, 594.684 503.732, 597.500 502.251 C 605.015 498.297, 612.897 488.779, 611.554 485.279 C 611.105 484.111, 609.924 483.861, 606.612 484.234 C 604.219 484.504, 601.467 484.281, 600.498 483.739 C 598.581 482.666, 588.722 481.956, 585.500 482.658 M 659.840 549.250 C 657.948 551.038, 656.099 553.288, 655.731 554.250 C 655.364 555.212, 654.396 556, 653.581 556 C 652.766 556, 651.740 556.612, 651.300 557.361 C 650.190 559.249, 625.883 581, 624.882 581 C 623.837 581, 621.674 585.008, 622.353 585.687 C 623.081 586.414, 631.021 581.943, 633.783 579.250 C 635.052 578.013, 636.414 577, 636.808 577 C 637.850 577, 648.829 566.105, 653.500 560.436 C 655.700 557.766, 659.177 553.815, 661.226 551.656 C 663.275 549.497, 664.711 547.341, 664.417 546.865 C 663.662 545.643, 663.652 545.648, 659.840 549.250" stroke="none" fill="#e30000" fill-rule="evenodd"/>
</svg>